<svg width="216" height="216" viewBox="0 0 216 216" fill="none" xmlns="http://www.w3.org/2000/svg">
<path d="M103.672 0.0185882C95.0515 0.489925 88.2916 1.48221 81.0603 3.35516C58.5105 9.18485 38.3795 22.2334 23.7308 40.5039C12.9273 53.9743 5.50992 69.8261 2.14854 86.5833C-0.12132 97.9574 -0.592657 109.021 0.734528 120.445C3.25246 142.213 12.3319 162.617 26.9061 179.238C28.8163 181.421 33.2444 185.911 35.4522 187.908C48.6248 199.853 64.5635 208.436 81.4076 212.654C85.2403 213.609 87.9443 214.167 91.3925 214.7C97.2842 215.618 101.613 215.928 108.013 215.928C115.704 215.928 121.682 215.37 128.851 213.956C131.245 213.485 131.642 213.398 134.805 212.604C149.851 208.833 164.71 201.242 176.915 191.084C182.795 186.197 188.761 180.044 193.313 174.153C211.521 150.611 219.174 121.276 214.796 91.8549C212.96 79.5257 208.867 67.3577 202.864 56.3806C185.908 25.3591 155.073 4.58311 120.169 0.626365C116.547 0.217046 113.632 0.055799 109.13 0.0185882C106.574 -0.00621902 104.119 -0.00621902 103.672 0.0185882ZM115.455 11.1694C124.957 11.9385 133.738 13.8982 142.247 17.1232C161.907 24.5901 178.714 38.2961 190.001 56.0705C202.057 75.0728 207.106 97.6101 204.315 120.073C200.011 154.915 176.667 185.08 143.922 198.154C134.693 201.838 125.267 204.008 115.021 204.802C111.499 205.075 104.515 205.075 101.005 204.802C92.3351 204.132 84.6449 202.557 76.6322 199.828C48.1287 190.091 25.4921 167.281 15.9165 138.678C11.0543 124.141 9.72714 108.352 12.0838 93.0952C17.405 58.6628 41.0462 29.5516 73.7793 17.1232C83.3425 13.5013 93.7739 11.3803 104.292 10.9338C106.438 10.8469 113.235 10.9834 115.455 11.1694Z" fill="#293A5E"/>
<path d="M105.347 40.5784C91.9383 42.1537 81.6185 49.9431 77.8727 61.3048C76.5579 65.3236 76.3098 67.4198 76.1982 75.6062C76.0741 85.3058 75.6524 90.1308 74.5113 94.7946C73.6802 98.1931 72.2166 101.579 70.5793 103.886C69.5374 105.35 67.6025 107.31 66.1761 108.314C63.2984 110.349 59.4781 111.763 55.1741 112.383C53.6856 112.594 51.2669 112.805 50.0886 112.829L49.2823 112.842L49.9025 112.953C50.9444 113.152 55.6454 113.264 58.3618 113.177C66.8086 112.879 74.9454 110.944 81.7798 107.595C93.2159 102.001 101.266 92.5619 105.682 79.5753C106.5 77.1566 107.53 73.3983 107.827 71.7239C107.914 71.2525 108.137 71.0789 108.137 71.5006C108.137 71.9595 109.489 77.0698 110.11 78.9055C111.648 83.5817 113.744 88.0098 116.15 91.6689C124.088 103.8 136.901 111.13 153.225 112.879C156.822 113.264 164.338 113.313 166.062 112.953L166.62 112.842L165.876 112.829C165.467 112.817 164.462 112.755 163.644 112.693C159.029 112.296 155.482 111.403 152.394 109.828C150.421 108.811 149.007 107.794 147.444 106.231C144.083 102.882 141.9 98.0071 140.833 91.4828C140.139 87.2532 139.915 83.6933 139.816 75.7922C139.754 70.0494 139.655 67.9904 139.32 66.0554C138.253 59.7544 135.587 54.458 131.332 50.1664C129.683 48.5167 128.368 47.4252 126.433 46.1476C121.943 43.1584 116.473 41.2358 110.494 40.566C108.497 40.3427 107.344 40.3427 105.347 40.5784Z" fill="#293A5E"/>
<path d="M104.85 103.899C103.808 104.097 103.101 104.37 100.323 105.598C97.284 106.938 95.8328 107.359 94.3196 107.359C93.104 107.359 92.2358 107.149 91.0822 106.566L90.214 106.131L90.7722 106.628C92.1365 107.868 94.3568 109.096 96.1801 109.617C96.9988 109.853 97.4577 109.89 98.9585 109.89C100.98 109.89 101.997 109.679 104.974 108.711C106.5 108.215 106.674 108.178 108.013 108.178C109.353 108.178 109.526 108.215 111.052 108.711C114.029 109.679 115.046 109.89 117.068 109.89C119.176 109.89 120.144 109.679 121.967 108.786C123.084 108.252 125.093 106.888 125.564 106.367C125.788 106.119 125.726 106.131 125.13 106.466C123.431 107.397 121.632 107.595 119.536 107.062C118.854 106.888 117.266 106.28 115.703 105.586C112.305 104.085 111.511 103.837 110.06 103.837C109.452 103.824 108.671 103.849 108.323 103.874C107.988 103.899 107.207 103.886 106.587 103.849C105.979 103.812 105.198 103.824 104.85 103.899Z" fill="#293A5E"/>
<path d="M47.3973 124.191L46.2438 124.241V131.608V138.989H47.7322H49.2206V136.21C49.2206 134.672 49.2578 133.395 49.3199 133.357C49.3695 133.333 49.816 133.258 50.3122 133.221L51.2052 133.122L51.5525 133.916C51.751 134.35 52.3215 135.677 52.8053 136.843L53.7107 138.989H55.4348C56.3775 138.989 57.1589 138.976 57.1589 138.951C57.1589 138.927 56.4892 137.401 55.6581 135.565C54.8271 133.729 54.1077 132.08 54.0332 131.906C53.934 131.621 54.1325 131.075 55.4845 127.949C56.3527 125.965 57.0225 124.303 56.9853 124.266C56.8985 124.179 53.872 124.179 53.7231 124.266C53.6487 124.315 53.0782 125.717 52.4332 127.379C51.1308 130.765 51.3665 130.467 49.94 130.629L49.2206 130.703L49.1958 127.441L49.1586 124.191L48.8485 124.166C48.6749 124.166 48.0175 124.179 47.3973 124.191Z" fill="#293A5E"/>
<path d="M63.8936 124.29C63.7572 124.39 63.7324 125.667 63.7572 131.67L63.7944 138.927L65.3076 138.964L66.8333 139.001L66.8581 136.545L66.8953 134.089L68.2845 134.052L69.6613 134.015L69.9838 134.858C70.1574 135.317 70.5419 136.421 70.8396 137.314L71.3854 138.927L73.0227 138.964C73.9653 138.976 74.6475 138.951 74.6475 138.877C74.6475 138.815 74.201 137.562 73.6428 136.086L72.6381 133.407L73.2707 132.836C73.6676 132.477 74.0398 131.981 74.3002 131.46C74.6475 130.74 74.7095 130.48 74.7468 129.438C74.8088 127.962 74.6351 127.069 74.1142 126.2C73.6056 125.357 72.8614 124.786 71.8195 124.476C71.0753 124.253 70.604 124.216 67.5279 124.191C65.3696 124.179 64.0052 124.216 63.8936 124.29ZM70.6784 127.032C72.018 127.813 72.018 130.492 70.6784 131.199C70.3187 131.385 69.9466 131.422 68.545 131.422H66.8333V129.153C66.8333 127.9 66.8705 126.833 66.9325 126.783C66.9821 126.721 67.7511 126.709 68.6318 126.734C69.9838 126.771 70.3187 126.821 70.6784 127.032Z" fill="#293A5E"/>
<path d="M81.9535 124.241C81.8791 124.29 81.8419 126.486 81.8667 130.07C81.9039 135.751 81.9039 135.838 82.1892 136.533C82.9458 138.393 84.6079 139.237 87.4979 139.237C88.3289 139.237 89.2468 139.162 89.5941 139.063C91.5539 138.542 92.633 137.389 92.9927 135.441C93.1663 134.511 93.1787 124.266 93.0051 124.203C92.9431 124.179 92.2733 124.179 91.5291 124.203L90.1647 124.241L90.1275 129.537C90.0903 134.784 90.0903 134.833 89.805 135.416C89.4205 136.198 88.8747 136.52 87.8204 136.607C86.2947 136.706 85.2528 136.161 84.9552 135.081C84.8683 134.759 84.8187 132.787 84.8187 129.401C84.8187 125.357 84.7815 124.228 84.6699 124.216C83.9629 124.166 82.0403 124.179 81.9535 124.241Z" fill="#293A5E"/>
<path d="M99.6657 124.204C99.4796 124.241 99.4548 124.427 99.4548 125.543V126.833H101.439H103.424V132.911V138.989H104.974H106.525V132.911V126.833H108.447H110.37V125.531C110.37 124.811 110.333 124.228 110.283 124.228C108.051 124.191 99.8145 124.179 99.6657 124.204Z" fill="#293A5E"/>
<path d="M117.105 124.204L116.82 124.241V131.621V138.989H118.37H119.921V136.148V133.32L120.578 133.233C121.943 133.072 121.769 132.911 122.749 135.23C123.232 136.384 123.778 137.686 123.964 138.145L124.312 138.989H126.023C126.966 138.989 127.735 138.939 127.735 138.877C127.735 138.827 127.016 137.165 126.123 135.206L124.51 131.633L125.701 128.892C127.995 123.621 127.76 124.228 127.45 124.216C127.177 124.204 124.696 124.216 124.411 124.228C124.324 124.228 124.2 124.377 124.126 124.563C123.096 127.416 121.831 130.43 121.67 130.48C121.558 130.517 121.124 130.579 120.702 130.616L119.921 130.703V127.54C119.921 125.171 119.884 124.34 119.772 124.278C119.623 124.179 117.626 124.129 117.105 124.204Z" fill="#293A5E"/>
<path d="M134.557 124.204C134.47 124.228 134.433 126.833 134.433 131.621V138.989H138.65H142.868V137.686V136.384L140.176 136.359L137.472 136.322L137.435 130.269C137.41 124.625 137.398 124.228 137.187 124.228C135.153 124.179 134.656 124.179 134.557 124.204Z" fill="#293A5E"/>
<path d="M149.02 124.204C148.834 124.241 148.822 124.886 148.822 131.621V138.989H150.372H151.922V131.695C151.922 127.689 151.873 124.352 151.823 124.29C151.749 124.179 149.516 124.117 149.02 124.204Z" fill="#293A5E"/>
<path d="M160.232 124.204C160.146 124.228 160.108 126.833 160.108 131.621V138.989H161.659H163.209L163.234 136.843L163.271 134.709L165.318 134.635C167.476 134.561 167.923 134.461 168.878 133.866C170.279 132.985 171.024 131.063 170.862 128.756C170.701 126.461 169.684 125.047 167.799 124.464C167.079 124.253 166.583 124.216 163.668 124.191C161.845 124.179 160.294 124.179 160.232 124.204ZM166.806 127.032C167.451 127.404 167.712 127.949 167.774 129.066C167.861 130.653 167.34 131.733 166.335 132.005C166.149 132.055 165.392 132.105 164.636 132.105H163.271L163.234 129.562C163.222 128.173 163.234 126.945 163.271 126.858C163.383 126.56 166.261 126.709 166.806 127.032Z" fill="#293A5E"/>
<path d="M83.0822 146.617V149.78H83.5783H84.062L84.0992 148.874C84.1365 148.093 84.1613 147.981 84.3845 147.944C84.5706 147.919 84.7566 148.13 85.166 148.849L85.7117 149.78H86.2575C86.8901 149.78 86.9149 149.891 86.0466 148.391C85.7737 147.944 85.5629 147.51 85.5629 147.435C85.5629 147.361 85.8109 146.902 86.121 146.406C86.4311 145.91 86.6792 145.463 86.6792 145.401C86.6792 145.352 86.4435 145.314 86.1582 145.339C85.6497 145.376 85.6125 145.414 85.1287 146.208C84.7566 146.84 84.5582 147.039 84.3597 147.051C84.0744 147.051 84.0744 147.039 84.0744 145.252V143.454H83.5783H83.0822V146.617Z" fill="#293A5E"/>
<path d="M126.991 146.617V149.78H127.487H127.971L128.008 148.874C128.045 148.093 128.07 147.981 128.293 147.944C128.479 147.919 128.665 148.13 129.075 148.849L129.62 149.78H130.166C130.799 149.78 130.823 149.891 129.955 148.391C129.682 147.944 129.471 147.51 129.471 147.435C129.471 147.361 129.72 146.902 130.03 146.406C130.34 145.91 130.588 145.463 130.588 145.401C130.588 145.352 130.352 145.314 130.067 145.339C129.571 145.376 129.533 145.414 129.05 146.208C128.665 146.84 128.467 147.039 128.268 147.051C127.983 147.051 127.983 147.039 127.983 145.252V143.454H127.487H126.991V146.617Z" fill="#293A5E"/>
<path d="M70.7159 143.764C69.9965 144.074 69.6492 145.004 69.9345 145.86C70.1205 146.456 70.5423 146.753 71.5966 147.063C72.6509 147.373 72.9114 147.584 72.9114 148.093C72.9114 148.899 72.4896 149.085 71.026 148.973L69.9221 148.887L69.9593 149.296C69.9965 149.68 70.0461 149.718 70.4926 149.805C71.2493 149.941 72.4772 149.916 72.8741 149.767C73.73 149.445 74.1765 148.44 73.9036 147.448C73.7424 146.828 73.5067 146.654 72.254 146.232C70.8027 145.749 70.5051 145.352 71.1252 144.731C71.4353 144.421 71.4849 144.421 72.6137 144.471L73.7796 144.533V144.136C73.7796 143.789 73.73 143.727 73.3951 143.652C72.7129 143.516 71.1252 143.578 70.7159 143.764Z" fill="#293A5E"/>
<path d="M77.2774 145.314C76.744 145.438 76.62 145.562 76.7068 145.885C76.7688 146.121 76.8433 146.133 77.7239 146.096C78.803 146.034 78.9891 146.121 79.0263 146.629C79.0511 146.977 79.0387 146.989 78.2077 147.076C77.0789 147.212 76.682 147.423 76.496 148.031C76.3843 148.415 76.3843 148.626 76.5208 149.048C76.744 149.755 77.0913 149.941 78.0588 149.842C79.0883 149.743 79.3488 149.743 79.9566 149.842C80.4775 149.941 80.4775 149.929 80.4775 149.556C80.4775 149.346 80.4031 149.16 80.2915 149.11C80.1426 149.06 80.1054 148.787 80.1054 147.832C80.1054 146.269 79.9566 145.749 79.448 145.438C79.0263 145.178 78.0712 145.128 77.2774 145.314Z" fill="#293A5E"/>
<path d="M89.9536 145.364C89.3955 145.612 89.1598 146.021 89.1598 146.691C89.1598 147.423 89.4823 147.721 90.4994 147.932C91.3924 148.105 91.6405 148.242 91.6405 148.539C91.6405 148.924 91.2064 149.06 90.1645 149.011L89.2218 148.974V149.346C89.2218 149.78 89.4699 149.867 90.7475 149.891C92.0622 149.916 92.6328 149.482 92.6328 148.465C92.6328 147.659 92.2359 147.287 91.1444 147.113C90.4126 146.989 90.1521 146.853 90.1521 146.542C90.1521 146.183 90.6606 146.046 91.6529 146.133L92.5088 146.22V145.848C92.5088 145.389 92.3847 145.327 91.2188 145.24C90.5986 145.203 90.2265 145.24 89.9536 145.364Z" fill="#293A5E"/>
<path d="M99.9509 145.401C99.3556 145.711 99.0579 146.294 98.9835 147.274C98.9214 148.328 99.0951 149.011 99.5788 149.47C99.9013 149.767 100.075 149.842 100.745 149.879C102.308 149.978 102.915 149.321 102.928 147.547C102.928 145.984 102.394 145.302 101.104 145.228C100.584 145.19 100.261 145.24 99.9509 145.401ZM101.687 146.394C101.923 146.704 101.948 146.865 101.911 147.708C101.873 148.502 101.824 148.713 101.625 148.862C101.315 149.098 100.509 149.085 100.273 148.849C99.8145 148.391 99.8517 146.666 100.323 146.282C100.745 145.935 101.365 145.997 101.687 146.394Z" fill="#293A5E"/>
<path d="M112.566 145.451C111.846 145.835 111.561 146.555 111.635 147.845C111.722 149.445 112.181 149.916 113.682 149.891C114.959 149.867 115.27 149.78 115.27 149.408C115.27 149.11 115.245 149.098 114.215 149.036C112.987 148.961 112.727 148.85 112.69 148.341L112.665 147.981L114.066 147.944L115.456 147.907V147.262C115.456 146.034 114.823 145.302 113.694 145.228C113.198 145.203 112.913 145.252 112.566 145.451Z" fill="#293A5E"/>
<path d="M119.871 145.463C119.325 145.711 119.263 145.711 119.152 145.525C119.077 145.389 118.879 145.314 118.618 145.314H118.184V147.547V149.78H118.68H119.164L119.201 148.204L119.238 146.642L119.958 146.394C120.652 146.17 120.665 146.158 120.665 145.674C120.665 145.414 120.628 145.19 120.578 145.19C120.516 145.203 120.206 145.314 119.871 145.463Z" fill="#293A5E"/>
<path d="M134.123 145.252C134.061 145.277 133.85 145.327 133.664 145.364C133.379 145.426 133.317 145.513 133.317 145.798V146.145L134.284 146.096C134.805 146.071 135.314 146.096 135.4 146.158C135.487 146.22 135.574 146.431 135.587 146.629C135.611 146.977 135.599 146.989 134.768 147.076C133.614 147.212 133.242 147.423 133.056 148.056C132.92 148.477 132.932 148.651 133.081 149.073C133.317 149.755 133.664 149.941 134.619 149.842C135.351 149.767 135.698 149.755 136.542 149.817C136.914 149.842 136.976 149.805 137.013 149.544C137.038 149.358 136.976 149.197 136.864 149.135C136.703 149.048 136.666 148.787 136.666 147.82C136.666 146.27 136.517 145.749 136.008 145.438C135.649 145.215 134.545 145.104 134.123 145.252Z" fill="#293A5E"/>
<path d="M141.044 145.376C140.808 145.476 140.61 145.5 140.573 145.426C140.523 145.364 140.3 145.314 140.064 145.314H139.642V147.547V149.78H140.139H140.635V148.056V146.332L141.081 146.183C142.123 145.835 142.371 146.257 142.371 148.366V149.78H142.88H143.376L143.351 148.105C143.339 147.175 143.376 146.369 143.438 146.307C143.5 146.257 143.748 146.17 143.984 146.121C144.319 146.059 144.505 146.096 144.728 146.282C145.001 146.505 145.013 146.617 145.075 148.142L145.137 149.78H145.559H145.981L145.943 147.857C145.906 145.984 145.894 145.935 145.584 145.612C145.15 145.19 144.443 145.104 143.587 145.364C142.979 145.562 142.892 145.562 142.557 145.389C142.098 145.153 141.565 145.141 141.044 145.376Z" fill="#293A5E"/>
<path d="M105.297 145.525C105.297 145.649 105.532 146.642 105.818 147.733L106.339 149.718L107.232 149.755L108.125 149.792L108.311 149.135C108.621 148.056 109.253 145.538 109.253 145.426C109.253 145.364 109.03 145.314 108.77 145.314H108.286L107.889 146.976C107.455 148.763 107.343 149.048 107.17 148.849C107.095 148.775 106.872 147.956 106.649 147.014L106.252 145.314H105.768C105.383 145.314 105.284 145.364 105.297 145.525Z" fill="#293A5E"/>
</svg>
